<?xml version="1.0" encoding="UTF-8" standalone="no"?>
<!DOCTYPE svg PUBLIC "-//W3C//DTD SVG 1.1//EN" "http://www.w3.org/Graphics/SVG/1.1/DTD/svg11.dtd">
<svg width="100%" height="100%" viewBox="0 0 512 512" version="1.1" xmlns="http://www.w3.org/2000/svg" xmlns:xlink="http://www.w3.org/1999/xlink" xml:space="preserve" xmlns:serif="http://www.serif.com/" style="fill-rule:evenodd;clip-rule:evenodd;stroke-linejoin:round;stroke-miterlimit:2;">
    <path d="M288,464L224,464C215.223,464 208,471.223 208,480C208,488.777 215.223,496 224,496L288,496C296.777,496 304,488.777 304,480C304,471.223 296.777,464 288,464Z" style="fill-rule:nonzero;"/>
    <path d="M304,416L208,416C199.223,416 192,423.223 192,432C192,440.777 199.223,448 208,448L304,448C312.777,448 320,440.777 320,432C320,423.223 312.777,416 304,416Z" style="fill-rule:nonzero;"/>
    <path d="M369.42,62.69C339.35,32.58 299.07,16 256,16L255.62,16C168.055,16 96,88.055 96,175.62L96,176C96,222.62 113.87,266.23 145,295.64L149.36,299.73C167.37,316.57 192,339.64 192,360L192,384C192,392.777 199.223,400 208,400L232,400C236.389,400 240,396.389 240,392L240,274.82C240.001,271.515 237.955,268.535 234.87,267.35C225.631,263.581 216.854,258.766 208.71,253C204.112,250.064 201.321,244.971 201.321,239.515C201.321,230.738 208.544,223.515 217.321,223.515C220.942,223.515 224.458,224.744 227.29,227C234.69,232.24 248.94,240 256,240C263.06,240 277.31,232.22 284.73,227C287.281,225.396 290.233,224.546 293.246,224.546C302.023,224.546 309.246,231.768 309.246,240.546C309.246,245.381 307.054,249.965 303.29,253C295.145,258.756 286.368,263.56 277.13,267.32C274.045,268.505 271.999,271.485 272,274.79L272,392C272,396.389 275.611,400 280,400L304,400C312.777,400 320,392.777 320,384L320,360C320,340.12 344.36,317.07 362.15,300.23L367.06,295.57C399.08,265 416,223.61 416,176C416.214,133.545 399.432,92.72 369.42,62.69Z" style="fill:url(#_Radial1);fill-rule:nonzero;"/>
    <defs>
        <radialGradient id="_Radial1" cx="0" cy="0" r="1" gradientUnits="userSpaceOnUse" gradientTransform="matrix(1.30273e-14,212.752,-212.752,1.30273e-14,256,133.427)"><stop offset="0" style="stop-color:rgb(255,214,51);stop-opacity:1"/><stop offset="0.42" style="stop-color:rgb(255,211,35);stop-opacity:1"/><stop offset="1" style="stop-color:rgb(255,204,0);stop-opacity:1"/></radialGradient>
    </defs>
</svg>
